<mxfile host="65bd71144e">
    <diagram id="mJU1Lrm6mV67JF1vKyu4" name="Page-1">
        <mxGraphModel dx="1393" dy="633" grid="1" gridSize="10" guides="1" tooltips="1" connect="1" arrows="1" fold="1" page="1" pageScale="1" pageWidth="850" pageHeight="1100" math="0" shadow="0">
            <root>
                <mxCell id="0"/>
                <mxCell id="1" parent="0"/>
                <mxCell id="2" value="" style="group" connectable="0" vertex="1" parent="1">
                    <mxGeometry x="27.5" y="257.8125" width="320" height="180" as="geometry"/>
                </mxCell>
                <mxCell id="3" value="" style="rounded=0;whiteSpace=wrap;html=1;labelBackgroundColor=default;fontSize=16;fillStyle=hatch;fillColor=#B3B3B3;strokeColor=none;" vertex="1" parent="2">
                    <mxGeometry width="320" height="180" as="geometry"/>
                </mxCell>
                <mxCell id="4" value="" style="rounded=0;whiteSpace=wrap;html=1;labelBackgroundColor=default;fontSize=16;fillStyle=solid;fillColor=#FFFFFF;" vertex="1" parent="2">
                    <mxGeometry x="80" y="40" width="160" height="100" as="geometry"/>
                </mxCell>
                <mxCell id="5" value="" style="endArrow=none;html=1;rounded=0;strokeColor=#FF0000;fontSize=16;fontColor=#FF0000;strokeWidth=3;" edge="1" parent="2">
                    <mxGeometry width="50" height="50" relative="1" as="geometry">
                        <mxPoint x="220" y="80" as="sourcePoint"/>
                        <mxPoint x="100" y="80" as="targetPoint"/>
                        <Array as="points">
                            <mxPoint x="220" y="120"/>
                            <mxPoint x="100" y="120"/>
                        </Array>
                    </mxGeometry>
                </mxCell>
                <mxCell id="6" value="100*300" style="edgeLabel;html=1;align=center;verticalAlign=middle;resizable=0;points=[];fontSize=16;fontColor=#FF0000;" connectable="0" vertex="1" parent="5">
                    <mxGeometry x="0.0585" y="2" relative="1" as="geometry">
                        <mxPoint x="6" y="-22" as="offset"/>
                    </mxGeometry>
                </mxCell>
                <mxCell id="7" value="50mm" style="text;html=1;strokeColor=none;fillColor=none;align=center;verticalAlign=middle;whiteSpace=wrap;rounded=0;fontSize=11;fontColor=#0000FF;labelBackgroundColor=default;" vertex="1" parent="2">
                    <mxGeometry x="200" y="40" width="60" height="20" as="geometry"/>
                </mxCell>
                <mxCell id="8" value="" style="group;rotation=90;" connectable="0" vertex="1" parent="2">
                    <mxGeometry x="220" y="60" width="20" height="20" as="geometry"/>
                </mxCell>
                <mxCell id="9" value="" style="endArrow=classic;startArrow=classic;html=1;rounded=0;labelBackgroundColor=none;fontSize=16;startSize=6;endSize=6;fontColor=#0000FF;strokeColor=#0000FF;" edge="1" parent="8">
                    <mxGeometry width="50" height="50" relative="1" as="geometry">
                        <mxPoint y="10" as="sourcePoint"/>
                        <mxPoint x="20" y="10" as="targetPoint"/>
                    </mxGeometry>
                </mxCell>
                <mxCell id="10" value="" style="endArrow=none;html=1;rounded=0;labelBackgroundColor=none;fontSize=16;startSize=6;endSize=6;fontColor=#0000FF;strokeColor=#0000FF;" edge="1" parent="8">
                    <mxGeometry width="50" height="50" relative="1" as="geometry">
                        <mxPoint x="20" y="20" as="sourcePoint"/>
                        <mxPoint x="20" as="targetPoint"/>
                    </mxGeometry>
                </mxCell>
                <mxCell id="11" value="" style="endArrow=none;html=1;rounded=0;labelBackgroundColor=none;fontSize=16;startSize=6;endSize=6;fontColor=#0000FF;strokeColor=#0000FF;" edge="1" parent="8">
                    <mxGeometry width="50" height="50" relative="1" as="geometry">
                        <mxPoint y="20" as="sourcePoint"/>
                        <mxPoint as="targetPoint"/>
                    </mxGeometry>
                </mxCell>
                <mxCell id="12" value="" style="endArrow=classic;startArrow=classic;html=1;rounded=0;labelBackgroundColor=none;fontSize=16;startSize=6;endSize=6;fontColor=#0000FF;strokeColor=#0000FF;" edge="1" parent="2">
                    <mxGeometry width="50" height="50" relative="1" as="geometry">
                        <mxPoint x="150" y="139.6500000000001" as="sourcePoint"/>
                        <mxPoint x="150" y="119.65000000000009" as="targetPoint"/>
                    </mxGeometry>
                </mxCell>
                <mxCell id="13" value="" style="endArrow=none;html=1;rounded=0;labelBackgroundColor=none;fontSize=16;startSize=6;endSize=6;fontColor=#0000FF;strokeColor=#0000FF;" edge="1" parent="2">
                    <mxGeometry width="50" height="50" relative="1" as="geometry">
                        <mxPoint x="160" y="119.65000000000009" as="sourcePoint"/>
                        <mxPoint x="140" y="119.65000000000009" as="targetPoint"/>
                    </mxGeometry>
                </mxCell>
                <mxCell id="14" value="" style="endArrow=none;html=1;rounded=0;labelBackgroundColor=none;fontSize=16;startSize=6;endSize=6;fontColor=#0000FF;strokeColor=#0000FF;" edge="1" parent="2">
                    <mxGeometry width="50" height="50" relative="1" as="geometry">
                        <mxPoint x="160" y="139.6500000000001" as="sourcePoint"/>
                        <mxPoint x="140" y="139.6500000000001" as="targetPoint"/>
                    </mxGeometry>
                </mxCell>
                <mxCell id="15" value="50mm" style="text;html=1;strokeColor=none;fillColor=none;align=center;verticalAlign=middle;whiteSpace=wrap;rounded=0;fontSize=11;fontColor=#0000FF;" vertex="1" parent="2">
                    <mxGeometry x="80" y="119.65000000000009" width="60" height="20" as="geometry"/>
                </mxCell>
                <mxCell id="16" value="" style="endArrow=classic;startArrow=classic;html=1;rounded=0;labelBackgroundColor=none;fontSize=16;startSize=6;endSize=6;fontColor=#0000FF;strokeColor=#0000FF;" edge="1" parent="2">
                    <mxGeometry width="50" height="50" relative="1" as="geometry">
                        <mxPoint x="200" y="79.62000000000009" as="sourcePoint"/>
                        <mxPoint x="200" y="39.620000000000005" as="targetPoint"/>
                    </mxGeometry>
                </mxCell>
                <mxCell id="17" value="" style="endArrow=none;html=1;rounded=0;labelBackgroundColor=none;fontSize=16;startSize=6;endSize=6;fontColor=#0000FF;strokeColor=#0000FF;" edge="1" parent="2">
                    <mxGeometry width="50" height="50" relative="1" as="geometry">
                        <mxPoint x="210" y="40.000000000000085" as="sourcePoint"/>
                        <mxPoint x="190" y="40.000000000000085" as="targetPoint"/>
                    </mxGeometry>
                </mxCell>
                <mxCell id="18" value="" style="endArrow=none;html=1;rounded=0;labelBackgroundColor=none;fontSize=16;startSize=6;endSize=6;fontColor=#0000FF;strokeColor=#0000FF;" edge="1" parent="2">
                    <mxGeometry width="50" height="50" relative="1" as="geometry">
                        <mxPoint x="210" y="79.62000000000009" as="sourcePoint"/>
                        <mxPoint x="190" y="79.62000000000009" as="targetPoint"/>
                    </mxGeometry>
                </mxCell>
                <mxCell id="19" value="&lt;div style=&quot;&quot;&gt;&lt;span style=&quot;background-color: initial;&quot;&gt;Petits câbles : 1*aile&lt;/span&gt;&lt;/div&gt;&lt;div style=&quot;&quot;&gt;&lt;span style=&quot;background-color: initial;&quot;&gt;Gros câbles : 1.5*aile&lt;/span&gt;&lt;/div&gt;" style="text;html=1;strokeColor=none;fillColor=none;align=left;verticalAlign=middle;whiteSpace=wrap;rounded=0;fontSize=11;fontColor=#0000FF;" vertex="1" parent="2">
                    <mxGeometry x="80" y="40" width="120" height="40" as="geometry"/>
                </mxCell>
            </root>
        </mxGraphModel>
    </diagram>
</mxfile>